<svg xmlns="http://www.w3.org/2000/svg" xmlns:xlink="http://www.w3.org/1999/xlink" width="500" zoomAndPan="magnify" viewBox="0 0 375 374.999991" height="500" preserveAspectRatio="xMidYMid meet" version="1.0"><defs><g/><clipPath id="id1"><path d="M 0 0 L 374.976562 0 L 374.976562 375 L 0 375 Z M 0 0 " clip-rule="nonzero"/></clipPath></defs><rect x="-37.5" width="450" fill="#ffffff" y="-37.499999" height="449.999989" fill-opacity="1"/><rect x="-37.5" width="450" fill="#ffffff" y="-37.499999" height="449.999989" fill-opacity="1"/><rect x="-37.5" width="450" fill="#ffffff" y="-37.499999" height="449.999989" fill-opacity="1"/><rect x="-37.5" width="450" fill="#ffffff" y="-37.499999" height="449.999989" fill-opacity="1"/><g clip-path="url(#id1)"><path fill="#3a3042" d="M 350.589844 375 L 24.363281 375 C 10.925781 375 -0.0234375 364.050781 -0.0234375 350.613281 L -0.0234375 24.386719 C -0.0234375 10.949219 10.925781 0 24.363281 0 L 350.589844 0 C 364.027344 0 374.976562 10.949219 374.976562 24.386719 L 374.976562 350.613281 C 374.976562 364.050781 364.027344 375 350.589844 375 " fill-opacity="1" fill-rule="nonzero"/></g><g fill="#ffe19c" fill-opacity="1"><g transform="translate(50.272918, 229.449885)"><g><path d="M 120.03125 0 L 111.828125 -31.171875 L 57.796875 -31.171875 L 49.375 0 L 0 0 L 54.265625 -167.015625 L 114.21875 -167.015625 L 169.171875 0 Z M 102.5 -68.03125 L 95.34375 -95.34375 C 93.675781 -101.40625 91.644531 -109.253906 89.25 -118.890625 C 86.863281 -128.523438 85.289062 -135.425781 84.53125 -139.59375 C 83.84375 -135.726562 82.492188 -129.359375 80.484375 -120.484375 C 78.484375 -111.609375 74.03125 -94.125 67.125 -68.03125 Z M 102.5 -68.03125 "/></g></g></g><g fill="#ffe19c" fill-opacity="1"><g transform="translate(237.438213, 266.949883)"><g><path d="M 4.890625 52.21875 C -3.296875 52.21875 -11.070312 51.421875 -18.4375 49.828125 L -18.4375 14.90625 C -16.007812 15.363281 -13.425781 15.875 -10.6875 16.4375 C -7.957031 17.007812 -5.003906 17.296875 -1.828125 17.296875 C 5.609375 17.296875 10.921875 15.054688 14.109375 10.578125 C 17.296875 6.109375 18.890625 -1.550781 18.890625 -12.40625 L 18.890625 -166.328125 L 64.046875 -166.328125 L 64.046875 -16.265625 C 64.046875 6.253906 59.113281 23.296875 49.25 34.859375 C 39.394531 46.429688 24.609375 52.21875 4.890625 52.21875 Z M 4.890625 52.21875 "/></g></g></g></svg>